<?xml version="1.0" standalone="no"?>
<!DOCTYPE svg PUBLIC "-//W3C//DTD SVG 20010904//EN"
 "http://www.w3.org/TR/2001/REC-SVG-20010904/DTD/svg10.dtd">
<svg version="1.0" xmlns="http://www.w3.org/2000/svg"
 width="976.000000pt" height="976.000000pt" viewBox="0 0 976.000000 976.000000"
 preserveAspectRatio="xMidYMid meet">
<metadata>
Created by potrace 1.14, written by Peter Selinger 2001-2017
</metadata>
<g transform="translate(0.000000,976.000000) scale(0.100000,-0.100000)"
fill="#000000" stroke="none">
<path d="M2 9004 l3 -138 30 -8 c16 -4 43 -10 60 -13 69 -11 92 -16 135 -25
25 -5 56 -12 70 -14 14 -3 50 -10 80 -16 30 -6 66 -12 80 -14 31 -5 113 -19
120 -21 3 -1 39 -7 80 -14 41 -7 84 -14 95 -16 11 -2 31 -6 45 -9 14 -2 59
-10 100 -16 76 -12 102 -16 143 -25 12 -2 42 -7 67 -9 25 -3 56 -8 70 -11 14
-2 45 -8 70 -11 25 -3 54 -7 65 -9 11 -2 40 -6 65 -9 25 -3 62 -8 83 -12 45
-7 74 -11 147 -20 73 -9 95 -12 95 -14 0 -1 18 -3 40 -5 22 -1 40 -4 40 -5 0
-1 11 -3 25 -5 59 -7 149 -16 195 -20 28 -2 50 -5 50 -6 0 -2 48 -8 115 -13
36 -3 75 -7 87 -10 12 -3 55 -7 95 -10 40 -4 91 -9 113 -11 22 -3 69 -8 105
-11 36 -2 81 -6 100 -9 19 -2 69 -6 110 -9 41 -3 102 -8 135 -11 33 -3 85 -7
115 -9 30 -2 89 -7 130 -10 121 -11 374 -25 735 -41 586 -27 1610 -22 2215 10
58 3 143 8 190 10 47 2 123 7 170 10 191 13 218 14 290 20 41 3 98 7 125 10
48 4 168 14 250 21 22 1 63 5 90 8 28 3 79 8 115 11 36 3 83 8 105 11 22 3 60
7 85 9 25 2 65 6 90 9 25 3 65 8 90 11 72 7 132 14 180 21 50 7 72 9 145 18
28 4 65 8 83 11 18 2 52 7 75 10 23 3 58 8 77 11 19 2 51 7 70 9 47 6 98 14
138 20 17 3 47 7 65 10 17 2 49 7 70 11 20 3 47 7 60 9 43 5 112 16 137 20 65
13 141 26 184 31 17 2 65 10 106 18 41 8 92 17 114 20 21 4 41 8 45 10 3 2 30
7 60 10 29 4 56 8 60 10 4 3 26 7 51 11 25 4 47 8 50 10 3 1 27 6 54 9 27 4
53 9 56 11 4 3 25 7 46 10 21 3 56 9 76 14 20 5 39 6 42 3 4 -3 6 61 6 142 l0
148 -27 -6 c-58 -13 -79 -17 -103 -22 -14 -2 -36 -7 -50 -9 -14 -3 -36 -8 -50
-10 -14 -3 -47 -9 -75 -15 -27 -6 -66 -13 -85 -15 -52 -8 -78 -13 -98 -19 -9
-3 -35 -7 -57 -11 -22 -3 -65 -10 -95 -15 -30 -5 -71 -12 -90 -15 -19 -3 -43
-8 -52 -11 -9 -3 -32 -7 -50 -9 -32 -3 -87 -12 -138 -21 -14 -2 -41 -7 -60
-10 -19 -3 -46 -7 -60 -10 -14 -2 -45 -6 -70 -10 -25 -3 -52 -7 -60 -9 -8 -2
-37 -7 -65 -10 -27 -4 -63 -9 -80 -12 -16 -3 -44 -6 -62 -8 -17 -2 -51 -7 -75
-11 -24 -3 -59 -8 -78 -9 -19 -2 -35 -4 -35 -5 0 -2 -33 -6 -105 -14 -30 -3
-64 -8 -76 -10 -11 -2 -47 -7 -80 -11 -32 -4 -72 -8 -89 -11 -16 -2 -57 -6
-90 -9 -33 -3 -71 -7 -85 -10 -14 -3 -54 -7 -90 -10 -36 -3 -74 -7 -85 -9 -11
-2 -58 -7 -105 -11 -47 -3 -96 -8 -110 -10 -14 -2 -59 -7 -100 -10 -41 -3 -93
-8 -115 -10 -109 -10 -311 -25 -525 -39 -52 -3 -129 -9 -170 -11 -331 -23
-875 -38 -1425 -38 -549 -1 -1131 13 -1154 27 -6 4 -11 2 -11 -4 0 -6 -4 -9
-9 -6 -5 3 -55 8 -112 12 -57 3 -131 7 -164 9 -33 2 -107 7 -165 10 -109 7
-170 11 -280 20 -36 2 -94 7 -130 10 -72 5 -157 13 -240 21 -30 3 -77 7 -105
9 -27 2 -68 6 -90 9 -22 3 -76 8 -120 12 -44 3 -89 8 -100 10 -22 4 -109 14
-165 19 -19 1 -55 5 -80 9 -47 7 -90 12 -178 22 -29 3 -63 7 -75 10 -12 3 -44
7 -72 10 -27 2 -61 6 -75 8 -14 3 -45 7 -70 10 -25 4 -61 9 -80 12 -53 9 -113
16 -132 16 -10 -1 -20 4 -23 9 -4 5 -10 7 -14 4 -5 -2 -37 0 -72 6 -35 6 -79
12 -98 15 -34 4 -64 9 -111 19 -14 3 -43 7 -65 10 -22 3 -50 7 -61 9 -22 4
-78 14 -124 21 -14 3 -35 6 -47 9 -11 2 -43 8 -70 12 -26 3 -57 8 -68 11 -11
2 -36 6 -55 9 -19 3 -42 8 -50 11 -8 3 -26 7 -40 8 -14 1 -50 7 -80 14 -30 6
-66 13 -80 16 -14 3 -36 7 -50 10 -14 3 -38 7 -55 9 -29 4 -72 13 -108 23 -16
4 -17 -5 -15 -133z"/>
<path d="M6 8343 c-7 -7 -8 -273 -2 -273 3 0 36 -7 75 -15 39 -8 85 -17 103
-20 18 -3 41 -8 51 -11 11 -3 29 -7 40 -9 44 -5 103 -16 167 -29 36 -8 68 -12
73 -9 4 2 7 -1 7 -7 0 -6 5 -8 10 -5 6 4 32 2 58 -4 51 -11 102 -21 142 -26
34 -4 92 -15 110 -20 8 -2 40 -7 70 -10 30 -4 57 -8 60 -10 5 -3 54 -11 195
-31 11 -1 22 -3 25 -4 3 -1 8 -2 11 -2 4 1 33 -3 65 -9 33 -6 73 -12 89 -14
89 -10 163 -20 286 -40 41 -7 90 -12 169 -20 30 -3 66 -7 79 -10 13 -2 49 -7
80 -10 31 -3 67 -8 81 -10 14 -3 54 -7 90 -10 36 -4 79 -8 95 -10 17 -2 59 -7
95 -10 36 -3 83 -8 105 -11 71 -8 170 -17 315 -29 30 -2 82 -6 115 -9 95 -9
225 -19 420 -31 50 -3 117 -8 150 -10 157 -10 383 -20 725 -31 403 -14 1422
-8 1780 11 41 2 131 6 200 10 139 6 255 13 345 19 33 3 103 7 155 10 52 3 115
8 140 11 25 2 83 7 130 10 47 4 103 9 125 11 22 3 69 6 105 9 36 2 88 6 115 9
28 4 70 8 95 11 25 3 70 8 100 10 30 3 71 7 90 10 19 2 55 7 80 9 98 11 166
18 180 21 33 6 147 18 182 19 21 1 38 3 38 7 0 3 10 5 23 6 26 0 112 10 147
17 32 5 116 17 155 22 17 1 46 5 65 8 19 3 51 8 70 10 19 3 69 11 110 17 41 7
84 13 95 14 25 4 210 34 250 41 17 3 80 14 140 24 61 11 124 22 140 25 17 3
46 8 65 11 74 13 87 15 155 29 39 8 82 16 97 19 15 2 65 12 110 22 46 9 90 17
98 19 12 1 15 27 18 144 2 133 1 142 -15 137 -10 -3 -31 -8 -48 -11 -16 -2
-41 -7 -55 -10 -14 -3 -41 -8 -60 -11 -19 -3 -51 -9 -70 -14 -19 -5 -53 -11
-75 -15 -23 -3 -52 -8 -65 -11 -14 -3 -36 -7 -50 -9 -14 -2 -25 -4 -25 -5 0
-1 -9 -3 -20 -5 -11 -2 -36 -7 -55 -10 -43 -8 -87 -15 -120 -19 -14 -2 -34 -6
-45 -9 -11 -3 -41 -8 -66 -11 -25 -3 -66 -10 -90 -15 -24 -5 -64 -13 -89 -16
-25 -4 -54 -8 -65 -10 -11 -2 -42 -6 -70 -9 -27 -4 -57 -9 -65 -11 -23 -6
-103 -18 -127 -18 -13 -1 -23 -5 -23 -10 0 -4 -4 -6 -9 -2 -6 3 -38 1 -73 -4
-35 -6 -85 -13 -113 -16 -27 -3 -61 -8 -75 -10 -31 -5 -94 -13 -140 -19 -19
-3 -55 -7 -80 -11 -25 -3 -58 -7 -75 -9 -16 -3 -50 -7 -75 -11 -25 -3 -65 -8
-90 -10 -25 -2 -45 -4 -45 -5 0 -1 -22 -3 -49 -5 -28 -2 -68 -6 -90 -9 -23 -3
-66 -8 -96 -11 -30 -3 -71 -8 -90 -10 -19 -2 -69 -7 -110 -11 -41 -3 -91 -7
-110 -9 -19 -2 -71 -7 -115 -10 -44 -3 -91 -8 -105 -10 -14 -2 -72 -7 -130
-11 -58 -3 -125 -8 -150 -10 -25 -2 -83 -5 -130 -8 -47 -3 -119 -7 -160 -10
-440 -30 -808 -40 -1510 -39 -615 0 -896 5 -906 16 -4 3 -14 2 -24 -3 -10 -5
-20 -7 -22 -4 -3 3 -52 7 -109 9 -180 8 -301 14 -384 20 -44 3 -116 8 -160 10
-44 3 -111 7 -150 10 -38 3 -99 7 -135 10 -36 2 -65 4 -65 5 0 0 -27 3 -60 5
-71 5 -146 12 -235 21 -36 4 -80 7 -97 8 -18 0 -33 3 -33 6 0 3 -21 5 -48 5
-26 1 -76 4 -112 8 -36 4 -85 10 -110 12 -25 3 -63 7 -85 10 -22 3 -67 8 -100
11 -33 3 -71 8 -85 10 -14 3 -45 7 -70 9 -25 3 -56 7 -70 10 -14 2 -52 7 -85
11 -33 4 -71 8 -85 10 -68 9 -99 13 -138 18 -24 3 -53 8 -65 11 -12 3 -47 8
-77 11 -71 8 -100 12 -127 18 -20 4 -64 11 -138 21 -16 2 -41 6 -55 9 -14 3
-45 8 -69 11 -25 3 -54 7 -65 10 -12 2 -37 7 -56 10 -37 5 -79 13 -120 21 -14
3 -38 7 -55 9 -16 1 -30 4 -30 5 0 1 -11 3 -25 5 -14 2 -52 8 -85 15 -57 11
-87 16 -145 25 -14 2 -59 10 -100 19 -105 21 -131 26 -165 32 -16 3 -42 9 -57
14 -14 4 -29 6 -32 3z"/>
<path d="M9750 7547 c-5 -5 -21 -8 -105 -22 -22 -3 -56 -10 -75 -15 -19 -5
-48 -11 -65 -14 -48 -8 -88 -15 -115 -21 -14 -3 -38 -8 -55 -10 -16 -3 -55
-10 -85 -16 -30 -5 -72 -12 -93 -15 -47 -7 -72 -12 -72 -14 0 -1 -9 -3 -20 -4
-11 -1 -36 -6 -55 -9 -19 -4 -53 -9 -75 -12 -22 -4 -51 -8 -65 -11 -14 -2 -41
-7 -60 -10 -19 -3 -46 -7 -60 -10 -14 -2 -44 -7 -66 -10 -23 -2 -53 -7 -65 -9
-13 -3 -44 -8 -69 -11 -25 -3 -56 -7 -70 -10 -14 -2 -36 -6 -50 -8 -26 -5
-105 -16 -150 -21 -14 -2 -43 -6 -65 -9 -57 -9 -92 -13 -156 -20 -31 -4 -65
-8 -75 -10 -18 -4 -108 -15 -164 -21 -50 -5 -135 -17 -137 -19 -1 -1 -2 -28
-2 -61 -1 -33 -2 -80 -2 -105 -1 -25 -1 -52 0 -60 1 -8 1 -35 0 -60 -1 -25 -1
-52 0 -60 1 -8 1 -35 0 -60 -1 -25 -1 -52 0 -60 1 -8 1 -35 0 -60 -1 -25 -1
-52 0 -60 1 -8 1 -35 0 -60 -1 -25 -1 -52 0 -60 1 -8 1 -35 0 -60 -1 -25 -1
-52 0 -60 1 -8 1 -35 0 -60 -1 -25 -1 -52 0 -60 1 -8 1 -35 0 -60 -1 -25 -1
-52 0 -60 1 -8 1 -35 0 -60 -1 -25 -1 -52 0 -60 1 -8 1 -35 0 -60 -1 -25 -1
-52 0 -60 1 -8 1 -35 0 -60 -1 -25 -1 -52 0 -60 1 -8 1 -35 0 -60 -1 -25 -1
-52 0 -60 1 -8 1 -35 0 -60 -1 -25 -1 -52 0 -60 1 -8 1 -35 0 -60 -1 -25 -1
-52 0 -60 1 -8 1 -35 0 -60 -1 -25 -1 -52 0 -60 1 -8 1 -35 0 -60 -1 -25 -1
-52 0 -60 1 -8 1 -35 0 -60 -1 -25 -1 -52 0 -60 1 -8 1 -35 0 -60 -1 -25 -1
-52 0 -60 1 -8 1 -35 0 -60 -1 -25 -1 -52 0 -60 0 -8 0 -85 0 -170 0 -85 0
-162 0 -170 0 -8 0 -44 0 -80 -1 -36 -1 -72 0 -80 1 -18 1 -140 -1 -149 0 -3
1 -10 2 -16 5 -27 -5 -225 -15 -290 -5 -27 -6 -50 -4 -51 2 0 -2 -8 -10 -17
-7 -10 -11 -17 -8 -17 11 0 -55 -174 -91 -240 -127 -232 -336 -417 -567 -500
-33 -12 -67 -24 -75 -27 -8 -3 -26 -7 -39 -9 -13 -2 -28 -9 -33 -16 -10 -16
-5 -1415 6 -1473 4 -22 10 -47 13 -55 3 -8 7 -28 10 -45 7 -45 62 -183 95
-238 15 -26 28 -52 28 -57 0 -6 5 -10 10 -10 6 0 10 -5 10 -11 0 -33 193 -234
285 -295 117 -79 251 -139 360 -163 28 -6 59 -14 70 -18 27 -9 1095 -14 1109
-5 6 3 18 7 26 9 89 13 240 59 252 77 4 6 8 8 8 3 0 -16 174 89 253 153 42 34
122 118 161 170 22 30 43 57 46 60 3 3 12 19 20 35 8 17 18 32 22 35 15 12 82
179 106 269 l27 96 3 2710 c2 2742 1 3311 -8 3302z"/>
<path d="M0 7379 c0 -76 3 -139 8 -139 4 0 39 -7 77 -15 39 -9 84 -18 100 -21
17 -2 37 -7 45 -9 8 -2 31 -7 50 -10 19 -3 54 -10 78 -16 23 -5 59 -12 80 -15
20 -4 42 -7 47 -9 10 -2 62 -12 105 -20 27 -4 58 -11 105 -20 17 -4 39 -8 50
-9 11 -1 40 -6 65 -10 25 -5 52 -10 60 -11 8 -1 35 -6 60 -10 25 -4 54 -9 65
-12 11 -2 31 -6 45 -8 37 -6 87 -14 160 -26 120 -21 237 -39 260 -40 8 -1 36
-5 62 -10 26 -5 69 -11 96 -14 27 -3 59 -8 73 -11 13 -2 42 -7 64 -9 45 -4
114 -13 154 -19 32 -6 149 -19 176 -20 18 -1 19 7 20 132 1 73 -1 135 -4 137
-3 2 -30 6 -60 10 -30 4 -61 8 -70 10 -9 1 -47 6 -85 9 -38 4 -72 9 -75 11 -3
1 -33 6 -66 10 -33 4 -73 9 -90 11 -16 3 -43 6 -60 8 -16 2 -48 7 -70 10 -22
4 -56 9 -75 11 -19 3 -46 7 -60 10 -14 3 -42 7 -62 10 -21 3 -55 7 -75 10 -21
3 -60 9 -88 15 -27 5 -63 11 -80 13 -30 5 -71 12 -130 22 -16 3 -46 8 -65 11
-19 2 -46 6 -60 9 -41 9 -71 14 -155 30 -107 19 -135 25 -165 30 -14 3 -34 7
-45 9 -79 15 -244 47 -265 52 -14 3 -45 10 -70 14 -25 5 -64 13 -87 18 l-43
10 0 -139z"/>
<path d="M4266 7061 c-2 -3 -3 -68 -3 -143 l-1 -138 32 -2 c104 -5 1194 -4
1211 2 18 6 19 17 20 145 0 144 -6 163 -42 134 -12 -10 -15 -10 -9 -1 5 8 0
12 -16 12 -13 0 -30 -6 -37 -12 -8 -7 -11 -8 -8 -2 7 12 -251 12 -271 1 -5 -4
-12 -2 -14 4 -2 7 -12 7 -30 0 -15 -6 -30 -7 -32 -2 -6 9 -43 8 -52 -2 -4 -4
-13 -2 -20 4 -7 5 -14 6 -17 2 -3 -4 -48 -6 -101 -3 -53 3 -96 1 -96 -3 0 -5
-5 -5 -11 -1 -19 11 -373 11 -388 0 -11 -8 -13 -8 -7 2 4 7 2 12 -6 12 -8 0
-20 -6 -27 -12 -11 -10 -12 -10 -7 -1 5 9 -3 12 -29 11 -20 -1 -37 -4 -39 -7z"/>
<path d="M0 6605 c0 -83 4 -136 11 -140 8 -6 237 -55 329 -71 14 -2 36 -7 50
-10 14 -3 43 -8 64 -10 22 -3 44 -8 49 -11 4 -3 23 -7 40 -10 18 -2 41 -6 52
-8 82 -13 102 -17 115 -22 8 -3 24 -7 35 -8 27 -3 104 -15 135 -21 14 -2 39
-6 55 -9 17 -2 39 -6 50 -8 27 -6 201 -35 250 -42 22 -3 51 -8 65 -11 14 -2
41 -6 60 -9 19 -2 55 -7 79 -10 23 -3 47 -7 51 -10 5 -3 30 -7 57 -9 26 -2 64
-6 83 -10 48 -8 96 -15 155 -22 28 -3 65 -9 83 -14 18 -5 30 -5 27 0 -3 4 10
4 27 -1 29 -7 128 -21 168 -23 13 -1 15 20 16 127 0 70 -2 131 -5 136 -6 8
-51 17 -131 26 -19 2 -55 7 -80 10 -80 11 -114 16 -145 20 -16 2 -47 6 -67 9
-21 3 -55 8 -75 11 -21 3 -51 7 -68 10 -16 3 -46 7 -65 10 -19 2 -46 7 -60 10
-14 2 -44 7 -65 9 -34 4 -172 25 -270 42 -16 3 -43 7 -60 10 -16 2 -41 6 -55
9 -46 10 -106 20 -180 30 -24 4 -48 8 -51 11 -4 2 -23 6 -42 8 -19 3 -72 12
-118 21 -46 9 -95 18 -109 21 -14 2 -36 7 -50 9 -42 9 -74 15 -100 20 -77 15
-113 23 -120 25 -3 1 -8 2 -11 2 -3 0 -23 3 -45 9 -21 5 -55 11 -74 14 -19 3
-41 8 -47 10 -10 3 -13 -27 -13 -130z"/>
<path d="M4263 5145 c0 -999 -4 -1252 -19 -1276 -2 -4 -6 -22 -9 -40 -6 -40
-10 -58 -18 -79 -3 -8 -11 -33 -17 -55 -21 -68 -100 -213 -158 -288 -61 -80
-112 -133 -187 -192 -27 -22 -52 -43 -55 -46 -3 -4 -15 -9 -27 -13 -13 -4 -23
-11 -23 -15 0 -11 -237 -119 -265 -121 -33 -2 -64 -15 -67 -29 -7 -30 -1
-1385 7 -1431 4 -25 8 -54 9 -65 2 -11 6 -27 9 -35 3 -8 10 -37 17 -65 16 -70
86 -217 142 -300 61 -92 191 -226 264 -273 10 -6 39 -26 64 -42 25 -16 51 -30
58 -30 6 0 12 -4 12 -10 0 -5 7 -10 15 -10 9 0 26 -6 38 -14 23 -15 162 -62
212 -71 17 -4 48 -9 70 -13 53 -9 1025 -9 1090 0 28 4 77 14 110 23 33 9 65
18 70 19 52 14 247 112 281 141 6 6 29 24 50 40 43 34 126 114 164 160 36 43
100 139 100 149 0 5 8 15 18 23 9 8 12 12 5 9 -6 -4 -1 13 13 38 24 44 71 169
79 216 3 14 7 36 10 50 3 14 8 45 12 70 10 67 11 1412 1 1433 -5 9 -15 17 -23
17 -48 0 -224 81 -328 152 -115 78 -258 234 -318 348 -13 25 -28 52 -34 60
-29 39 -84 217 -102 330 -3 19 -6 555 -7 1190 0 635 -4 1158 -8 1161 -5 3 -39
4 -76 2 -88 -4 -1027 -4 -1113 0 l-66 3 0 -1121z"/>
<path d="M2 5813 l3 -138 40 -7 c22 -5 51 -10 65 -13 14 -2 36 -6 50 -9 41 -9
203 -41 260 -52 14 -2 50 -9 80 -15 48 -9 67 -13 115 -24 6 -2 28 -6 50 -9 22
-4 54 -9 70 -11 17 -3 41 -8 55 -10 14 -3 36 -8 50 -10 14 -3 39 -7 55 -9 39
-6 88 -14 150 -26 53 -10 108 -18 165 -26 19 -2 46 -6 60 -9 55 -12 225 -37
326 -49 17 -2 44 -6 60 -10 16 -3 56 -8 89 -12 33 -3 62 -7 65 -9 3 -2 30 -6
60 -9 30 -4 69 -8 85 -10 17 -2 57 -7 90 -11 l60 -6 0 135 c0 83 -4 137 -10
138 -5 0 -14 2 -20 3 -5 1 -35 5 -65 9 -30 4 -66 9 -80 11 -14 2 -47 6 -75 10
-27 3 -59 7 -71 9 -11 2 -47 7 -80 10 -32 4 -66 8 -74 11 -14 4 -38 7 -140 20
-25 3 -67 10 -95 15 -27 5 -68 11 -90 14 -45 6 -71 11 -200 32 -49 8 -101 17
-115 19 -14 2 -65 11 -115 20 -49 9 -103 18 -120 20 -16 3 -50 9 -75 14 -25 6
-58 12 -75 15 -16 2 -41 7 -55 10 -14 3 -41 8 -60 11 -57 10 -63 11 -120 23
-30 6 -69 14 -87 17 -17 3 -83 16 -147 30 -64 14 -120 25 -126 25 -7 0 -10
-47 -8 -137z"/>
<path d="M0 4952 l0 -140 48 -7 c26 -5 52 -9 57 -11 6 -1 51 -10 100 -19 50
-9 99 -19 110 -21 11 -2 31 -6 45 -9 14 -2 39 -7 55 -9 17 -3 41 -8 55 -11 45
-9 85 -17 105 -19 11 -2 34 -6 50 -9 17 -4 44 -9 60 -11 17 -3 71 -12 120 -20
50 -8 106 -17 125 -21 19 -3 53 -8 75 -12 22 -4 55 -7 73 -8 17 0 32 -3 32 -6
0 -3 12 -7 28 -7 15 -1 38 -4 52 -6 14 -3 43 -8 65 -11 81 -12 181 -27 205
-31 14 -2 45 -7 70 -9 42 -5 60 -7 150 -20 80 -11 117 -16 155 -20 22 -2 58
-7 80 -10 59 -8 126 -16 160 -18 l30 -2 0 133 c1 73 -2 135 -7 138 -4 3 -27 7
-50 10 -24 3 -56 6 -73 8 -16 2 -57 7 -90 11 -33 4 -71 9 -85 11 -14 2 -47 7
-75 10 -27 3 -63 7 -80 10 -16 2 -48 7 -70 9 -44 6 -64 9 -140 20 -27 4 -61 9
-75 10 -14 2 -27 4 -30 5 -3 1 -8 2 -11 2 -4 -1 -33 3 -65 8 -98 16 -128 20
-159 24 -16 2 -46 7 -65 10 -19 3 -46 8 -60 10 -14 2 -36 7 -50 10 -14 3 -45
8 -70 11 -25 3 -56 7 -70 10 -14 3 -41 7 -60 10 -19 2 -35 4 -35 5 0 1 -11 3
-25 6 -14 2 -63 11 -110 20 -47 8 -98 17 -115 20 -16 3 -50 9 -75 14 -25 6
-61 12 -80 15 -19 2 -65 11 -101 19 -36 8 -79 16 -95 19 -16 3 -41 8 -56 12
l-28 7 0 -140z"/>
<path d="M4 4286 c-8 -20 1 -2739 9 -2766 4 -14 10 -41 13 -60 18 -98 120
-328 164 -370 3 -3 17 -23 32 -45 122 -177 376 -343 608 -396 95 -22 150 -24
640 -24 490 1 590 3 590 16 0 4 8 6 18 6 18 -1 114 26 160 45 15 6 29 12 32
13 3 0 33 15 67 32 102 52 183 112 274 202 82 83 189 228 189 257 0 8 4 14 8
14 20 0 97 234 110 335 9 78 9 1459 0 1463 -5 1 -38 14 -75 28 -38 14 -73 27
-78 28 -23 4 -145 72 -205 115 -252 178 -431 489 -449 780 -1 7 -7 11 -16 7
-8 -3 -15 -2 -15 2 0 4 -15 7 -32 7 -34 1 -152 13 -185 19 -10 2 -47 7 -83 11
-36 4 -74 9 -85 11 -11 2 -42 7 -70 10 -27 3 -61 7 -75 9 -14 2 -50 7 -80 10
-30 4 -57 8 -60 10 -3 2 -32 6 -65 9 -33 4 -67 9 -75 11 -8 2 -37 7 -65 11
-66 8 -87 11 -137 19 -24 4 -56 9 -73 11 -16 3 -37 7 -45 9 -8 2 -35 7 -60 10
-25 2 -56 7 -70 10 -14 3 -38 7 -55 10 -16 2 -40 6 -51 9 -12 2 -39 7 -60 10
-22 4 -52 9 -69 12 -16 3 -41 7 -55 9 -14 2 -36 6 -50 9 -14 3 -50 10 -80 16
-30 5 -68 12 -85 15 -16 3 -46 8 -65 11 -19 3 -38 8 -43 11 -4 2 -25 6 -47 8
-22 2 -65 11 -95 19 -44 11 -57 12 -61 2z"/>
</g>
</svg>
