<?xml version="1.0" encoding="UTF-8"?>
<svg id="Ebene_2" data-name="Ebene 2" xmlns="http://www.w3.org/2000/svg" viewBox="0 0 243.68 212.74">
  <g id="Ebene_1-2" data-name="Ebene 1">
    <path class="cls-1" d="M46.18,212.74h-19.25C12.05,212.74,0,200.69,0,185.81v-64.85c17.21,3.47,34.67,6.22,52.36,8.21.1,0,.21.02.31.03.2,2.47.74,4.84,1.57,7.08,1.36,3.67,3.49,6.97,6.21,9.68,3.44,3.43,7.79,5.94,12.66,7.12v32.73c0,14.88-12.06,26.93-26.93,26.93Z"/>
    <path class="cls-1" d="M137.91,52.01c-5.32.14-10.66.21-16.01.21-5.14,0-10.26-.06-15.37-.19h-.11s0-.31,0-.31c5.16.13,10.33.19,15.53.19,5.34,0,10.66-.07,15.96-.21v.31Z"/>
    <path class="cls-1" d="M131.47,212.74h-19.25c-14.88,0-26.93-12.05-26.93-26.93v-32.6c12.08-2.64,21.13-13.4,21.13-26.29v-48.18s.11,0,.11,0c5.18.14,10.38.21,15.59.21s10.54-.08,15.79-.21v48.18c0,7.44,3.02,14.18,7.88,19.04,3.43,3.42,7.76,5.92,12.6,7.11v32.74c0,14.88-12.05,26.93-26.92,26.93Z"/>
    <path class="cls-1" d="M243.68,39.78v146.04c0,14.87-12.05,26.93-26.93,26.93h-19.25c-14.87,0-26.93-12.05-26.93-26.93v-32.58c12.11-2.63,21.18-13.4,21.18-26.31V47.97c17.54-2,34.87-4.74,51.92-8.19Z"/>
    <path class="cls-1" d="M243.68,19.74v7.03c-17.06,3.45-34.38,6.19-51.92,8.18-7.02.8-14.08,1.48-21.18,2.04-4.05.31-8.11.59-12.18.83-6.79.4-13.63.69-20.48.86-5.29.13-10.59.2-15.91.2-5.21,0-10.41-.06-15.59-.2-7.08-.17-14.12-.47-21.13-.88-4.07-.24-8.13-.52-12.18-.84-6.88-.55-13.73-1.2-20.54-1.97C34.8,32.98,17.27,30.21,0,26.7v-6.86c17.27,3.49,34.8,6.25,52.56,8.26,6.81.76,13.66,1.41,20.54,1.95,4.05.32,8.11.6,12.18.83,7.01.42,14.05.71,21.13.87,5.04.13,10.09.19,15.16.19,5.46,0,10.91-.07,16.34-.22,6.85-.17,13.69-.47,20.48-.87,4.07-.23,8.13-.52,12.18-.84,7.1-.56,14.16-1.25,21.18-2.04,17.54-2.01,34.87-4.76,51.92-8.22Z"/>
    <path class="cls-1" d="M243.68,0v7.03c-17.06,3.45-34.38,6.18-51.92,8.17-7.03.79-14.08,1.47-21.18,2.02-4.05.32-8.11.6-12.18.83-6.79.4-13.63.69-20.48.85-5.21.13-10.45.2-15.7.2-5.28,0-10.55-.07-15.8-.2-7.08-.17-14.11-.48-21.13-.89-4.07-.24-8.13-.53-12.18-.85-6.88-.54-13.73-1.21-20.54-1.97C34.8,13.17,17.27,10.39,0,6.88V.02c17.27,3.5,34.81,6.27,52.56,8.26,6.81.77,13.66,1.42,20.54,1.97,4.05.31,8.11.6,12.18.83,7.02.42,14.05.71,21.13.88,5.11.13,10.23.19,15.37.19,5.39,0,10.77-.07,16.12-.21,6.85-.17,13.69-.47,20.48-.86,4.07-.24,8.13-.52,12.18-.84,7.1-.56,14.15-1.24,21.18-2.04,17.54-2,34.87-4.74,51.92-8.2Z"/>
    <path class="cls-1" d="M52.57,116.29c-.07,0-.14-.01-.21-.02C34.67,114.26,17.21,111.49,0,108v-6.86c17.21,3.48,34.68,6.23,52.36,8.22.07,0,.14.02.21.02v6.91Z"/>
    <path class="cls-1" d="M52.57,95.23c-.07-.01-.14-.02-.21-.03C34.67,93.03,17.2,90.09,0,86.44v-6.86c17.2,3.65,34.67,6.57,52.36,8.73.07.01.14.02.21.02v6.9Z"/>
    <path class="cls-1" d="M52.57,75.61c-.07-.01-.14-.02-.21-.03C34.67,73.42,17.2,70.49,0,66.83v-6.85c17.2,3.64,34.67,6.56,52.36,8.71.07,0,.14.02.21.02v6.9Z"/>
    <path class="cls-1" d="M52.57,56.16c-.14-.02-.28-.03-.42-.05C34.52,53.94,17.13,51.03,0,47.39v-6.86c17.13,3.64,34.52,6.54,52.15,8.68.14.02.28.03.42.05v6.9Z"/>
    <path class="cls-1" d="M122.12,78.95c-5.21,0-10.41-.07-15.59-.21h-.11s0-6.93,0-6.93h.11c5.04.13,10.09.19,15.16.19,5.42,0,10.83-.07,16.22-.22v6.96c-5.25.13-10.51.21-15.79.21Z"/>
    <path class="cls-1" d="M122.33,59.17c-5.28,0-10.55-.07-15.8-.21h-.11s0-6.93,0-6.93h.11c5.11.13,10.23.19,15.37.19,5.35,0,10.69-.07,16.01-.21v6.95c-5.17.14-10.37.21-15.58.21Z"/>
  </g>
</svg>